<svg xmlns="http://www.w3.org/2000/svg" viewBox="0 0 128 128">
  <defs>
    <linearGradient id="a" x1="0%" x2="100%" y1="0%" y2="100%">
      <stop offset="0%" stop-color="#35A1FF" />
      <stop offset="100%" stop-color="#0A1020" />
    </linearGradient>
  </defs>
  <rect width="128" height="128" fill="#05080D" rx="28" />
  <circle cx="64" cy="64" r="40" fill="url(#a)" opacity="0.85" />
  <path
    d="M89 58c0-16.016-10.909-28-27.407-28C45.905 30 35 42.823 35 60.77 35 78.178 45.308 90 61.205 90c9.267 0 17.299-3.77 23.795-10.83l-8.108-8.02c-4.368 4.53-9.234 6.73-14.925 6.73-9.721 0-15.902-7.31-16.307-15.58H89V58Zm-43.178-6.812c2.03-7.147 7.377-10.83 15.345-10.83 8.21 0 13.303 3.935 15.009 10.83H45.822Z"
    fill="#F7FAFF"
  />
</svg>
